<?xml version="1.0" encoding="UTF-8" standalone="no"?>
<svg width="50px" height="50px" viewBox="0 0 50 50" version="1.1" xmlns="http://www.w3.org/2000/svg" xmlns:xlink="http://www.w3.org/1999/xlink">
    <!-- Generator: Sketch 50 (54983) - http://www.bohemiancoding.com/sketch -->
    <title>Group</title>
    <desc>Created with Sketch.</desc>
    <defs></defs>
    <g id="website" stroke="none" stroke-width="1" fill="none" fill-rule="evenodd">
        <g id="Desktop-HD" transform="translate(-21.000000, -65.000000)" stroke="#0C120C" stroke-width="1.02200001">
            <g id="Group" transform="translate(21.000000, 65.000000)">
                <path d="M25,0.657478801 L34.0033112,14.1983661" id="Path-6"></path>
                <path d="M40.9508338,6.43109727 L38.9151396,22.8369911" id="Path-7"></path>
                <path d="M49.4847158,21.3986379 L37.3403805,32.7155605" id="Path-8"></path>
                <path d="M46.5157174,38.338385 L29.9776679,39.2592841" id="Path-9"></path>
                <path d="M33.4430759,49.4763551 L20.2873456,39.3524865" id="Path-10"></path>
                <path d="M16.4071297,49.4587062 L12.8146807,32.9773585" id="Path-11"></path>
                <path d="M3.46001933,38.4316012 L11.0454817,23.1199572" id="Path-12"></path>
                <path d="M0.598157349,21.3504141 L15.7847246,14.3844922" id="Path-13"></path>
                <path d="M9.0341002,6.44576329 L24.8602264,10.8462573" id="Path-23"></path>
                <path d="M25,0.496883832 L40.9897426,6.40645382 L49.4931647,21.3620216 L46.5404948,38.3657697 L33.5088176,49.4693333 L16.4911824,49.4693333 L3.45950522,38.3657697 L0.506835342,21.3620216 L9.01025744,6.40645382 L25,0.496883832 Z" id="Polygon"></path>
                <path d="M25,10.9120505 L34.0601107,14.3364923 L38.8697755,22.9874832 L37.2006765,32.8174884 L29.8229236,39.2462608 L20.1770764,39.2462608 L12.7993235,32.8174884 L11.1302245,22.9874832 L15.9398893,14.3364923 L25,10.9120505 Z" id="Polygon"></path>
            </g>
        </g>
    </g>
</svg>